<svg width="71" height="28" viewBox="0 0 71 28" fill="none" xmlns="http://www.w3.org/2000/svg">
<rect width="69.1952" height="28" rx="5" transform="matrix(1 0 0 -1 0.9375 28)" fill="white"/>
<path d="M18.0385 8.05581C17.3903 7.31693 16.2184 7.00015 14.7194 7.00015H10.3686C10.2202 7.00008 10.0766 7.05296 9.96375 7.1493C9.85088 7.24563 9.77609 7.37909 9.75285 7.52566L7.94205 19.0159C7.93365 19.0692 7.93691 19.1237 7.9516 19.1756C7.96629 19.2275 7.99206 19.2756 8.02714 19.3166C8.06222 19.3576 8.10577 19.3905 8.15479 19.4131C8.20381 19.4356 8.25714 19.4473 8.3111 19.4473H10.9971L11.6717 15.1685L11.6508 15.3025C11.6736 15.1562 11.7479 15.0229 11.8603 14.9265C11.9727 14.8302 12.1158 14.7772 12.2638 14.777H13.5402C16.0477 14.777 18.011 13.7585 18.5846 10.8123C18.6016 10.7252 18.6163 10.6403 18.6291 10.5575C18.7995 9.46851 18.6279 8.72731 18.0389 8.0562" fill="#003087"/>
<path d="M50.921 13.5228C50.7568 14.6009 49.9335 14.6009 49.1373 14.6009H48.6842L49.0022 12.5879C49.0215 12.4663 49.1261 12.3769 49.2492 12.3769H49.4572C49.9994 12.3769 50.5113 12.3769 50.7754 12.6855C50.933 12.8702 50.9807 13.1444 50.921 13.5228ZM50.5744 10.7097H47.5709C47.4714 10.7098 47.3752 10.7453 47.2995 10.8099C47.2239 10.8745 47.1737 10.9639 47.1581 11.0621L45.9444 18.7635C45.9388 18.7992 45.941 18.8356 45.9509 18.8704C45.9607 18.9052 45.978 18.9374 46.0014 18.9649C46.0249 18.9924 46.054 19.0145 46.0868 19.0296C46.1196 19.0448 46.1553 19.0527 46.1915 19.0527H47.7328C47.8764 19.0527 47.9988 18.9482 48.0213 18.8064L48.3659 16.6223C48.3977 16.4198 48.5727 16.2699 48.778 16.2699H49.7283C51.7071 16.2699 52.8488 15.313 53.1469 13.4151C53.2813 12.5856 53.1524 11.9335 52.764 11.4769C52.3368 10.975 51.5797 10.7094 50.5748 10.7094" fill="#009CDE"/>
<path d="M29.4992 13.5235C29.335 14.6016 28.5117 14.6016 27.7151 14.6016H27.262L27.58 12.5887C27.5993 12.4671 27.7039 12.3776 27.827 12.3776H28.035C28.5772 12.3776 29.0891 12.3776 29.3532 12.6863C29.5112 12.871 29.5588 13.1452 29.4992 13.5235ZM29.1526 10.7105H26.1491C25.9438 10.7105 25.7688 10.86 25.7366 11.0629L24.5226 18.7642C24.517 18.7999 24.5191 18.8365 24.5289 18.8713C24.5387 18.9061 24.556 18.9383 24.5795 18.9658C24.603 18.9933 24.6321 19.0154 24.665 19.0305C24.6978 19.0457 24.7335 19.0535 24.7697 19.0535H26.2041C26.4093 19.0535 26.584 18.904 26.6161 18.7011L26.9441 16.6235C26.9759 16.4206 27.1509 16.2711 27.3561 16.2711H28.3065C30.2853 16.2711 31.427 15.3138 31.7251 13.4159C31.8595 12.5864 31.7306 11.9342 31.3421 11.4777C30.915 10.9758 30.1579 10.7101 29.153 10.7101L29.1526 10.7105ZM36.1259 16.2885C35.9865 17.1103 35.3347 17.6621 34.5025 17.6621C34.0855 17.6621 33.7513 17.5277 33.5367 17.2737C33.3237 17.022 33.244 16.663 33.3113 16.2637C33.4407 15.449 34.1037 14.8797 34.9231 14.8797C35.3316 14.8797 35.6627 15.0152 35.8819 15.2716C36.1023 15.5299 36.189 15.8908 36.1259 16.2885ZM38.1303 13.4887H36.6921C36.6323 13.4886 36.5744 13.5099 36.529 13.5488C36.4835 13.5876 36.4535 13.6414 36.4442 13.7005L36.3815 14.1025L36.2808 13.9569C35.9694 13.5049 35.2751 13.3535 34.5819 13.3535C32.993 13.3535 31.6357 14.5579 31.3716 16.2463C31.2341 17.0894 31.4293 17.8945 31.9071 18.4564C32.3459 18.9726 32.9721 19.1875 33.7183 19.1875C34.9994 19.1875 35.7096 18.365 35.7096 18.365L35.6453 18.7646C35.6397 18.8004 35.6418 18.8369 35.6517 18.8717C35.6615 18.9066 35.6788 18.9388 35.7023 18.9663C35.7258 18.9939 35.755 19.0159 35.7879 19.031C35.8208 19.0462 35.8566 19.054 35.8928 19.0539H37.1877C37.393 19.0539 37.568 18.9048 37.6002 18.7015L38.3778 13.7783C38.3834 13.7426 38.3811 13.706 38.3713 13.6712C38.3614 13.6364 38.3441 13.6041 38.3205 13.5766C38.2969 13.5491 38.2677 13.527 38.2348 13.5119C38.2019 13.4968 38.1661 13.489 38.1299 13.4891" fill="#003087"/>
<path d="M57.5473 16.2885C57.4079 17.1103 56.7562 17.6621 55.924 17.6621C55.5069 17.6621 55.1727 17.5277 54.9582 17.2737C54.7452 17.022 54.6654 16.663 54.7328 16.2637C54.8621 15.449 55.5247 14.8797 56.3445 14.8797C56.7531 14.8797 57.0842 15.0152 57.3034 15.2716C57.5237 15.5299 57.6105 15.8908 57.5473 16.2885ZM59.5518 13.4887H58.1135C58.0537 13.4886 57.9959 13.5099 57.9504 13.5488C57.905 13.5876 57.8749 13.6414 57.8657 13.7005L57.8029 14.1025L57.7022 13.9569C57.3909 13.5049 56.6965 13.3535 56.0033 13.3535C54.4148 13.3535 53.0575 14.5579 52.793 16.2463C52.6555 17.0894 52.8511 17.8945 53.329 18.4564C53.7677 18.9726 54.3939 19.1875 55.1402 19.1875C56.4216 19.1875 57.1318 18.365 57.1318 18.365L57.0675 18.7646C57.0617 18.8003 57.0638 18.8369 57.0735 18.8717C57.0833 18.9065 57.1005 18.9388 57.1239 18.9663C57.1474 18.9938 57.1766 19.0159 57.2094 19.0311C57.2423 19.0462 57.278 19.054 57.3142 19.0539H58.6088C58.814 19.0539 58.9891 18.9048 59.0216 18.7015L59.7992 13.7783C59.8048 13.7426 59.8026 13.706 59.7927 13.6712C59.7828 13.6364 59.7655 13.6041 59.7419 13.5766C59.7184 13.5491 59.6892 13.527 59.6563 13.5119C59.6234 13.4968 59.5876 13.489 59.5514 13.4891" fill="#009CDE"/>
<path d="M45.7896 13.4888H44.3436C44.2053 13.4888 44.0764 13.5574 43.9989 13.672L42.0046 16.6089L41.1592 13.7866C41.1334 13.7005 41.0806 13.6251 41.0085 13.5713C40.9365 13.5176 40.849 13.4886 40.7592 13.4884H39.3383C39.2985 13.4885 39.2592 13.498 39.2238 13.5162C39.1884 13.5344 39.1578 13.5609 39.1346 13.5933C39.1115 13.6257 39.0963 13.6632 39.0906 13.7026C39.0848 13.742 39.0885 13.7822 39.1013 13.8199L40.6929 18.4925L39.1958 20.605C39.1694 20.6425 39.1537 20.6865 39.1506 20.7323C39.1474 20.7781 39.1569 20.8239 39.178 20.8646C39.1991 20.9054 39.231 20.9396 39.2702 20.9634C39.3094 20.9873 39.3544 21 39.4003 21H40.8447C40.9811 21 41.1092 20.933 41.1875 20.8207L45.9948 13.8819C46.0209 13.8444 46.0363 13.8004 46.0392 13.7548C46.042 13.7092 46.0324 13.6637 46.0112 13.6232C45.9901 13.5827 45.9583 13.5488 45.9192 13.5251C45.8801 13.5014 45.8353 13.4888 45.7896 13.4888Z" fill="#003087"/>
<path d="M61.2477 10.9212L60.0147 18.7635C60.0091 18.7992 60.0114 18.8357 60.0212 18.8705C60.0311 18.9053 60.0484 18.9376 60.0719 18.965C60.0954 18.9925 60.1246 19.0146 60.1574 19.0297C60.1903 19.0449 60.226 19.0527 60.2622 19.0527H61.5018C61.707 19.0527 61.8821 18.9033 61.9142 18.7003L63.1298 10.9986C63.1355 10.9629 63.1333 10.9263 63.1235 10.8915C63.1136 10.8567 63.0963 10.8244 63.0728 10.7969C63.0493 10.7694 63.0201 10.7473 62.9872 10.7322C62.9543 10.7171 62.9185 10.7093 62.8823 10.7094H61.4952C61.4355 10.7092 61.3777 10.7304 61.3323 10.7692C61.2869 10.808 61.2569 10.8618 61.2477 10.9208" fill="#009CDE"/>
<path d="M18.0385 8.05581C17.3903 7.31693 16.2184 7.00015 14.7194 7.00015H10.3686C10.2202 7.00008 10.0766 7.05296 9.96375 7.1493C9.85088 7.24563 9.77609 7.37909 9.75285 7.52566L7.94205 19.0159C7.93365 19.0692 7.93691 19.1237 7.9516 19.1756C7.96629 19.2275 7.99206 19.2756 8.02714 19.3166C8.06222 19.3576 8.10577 19.3905 8.15479 19.4131C8.20381 19.4356 8.25714 19.4473 8.3111 19.4473H10.9971L11.6717 15.1685L11.6508 15.3025C11.6736 15.1562 11.7479 15.0229 11.8603 14.9265C11.9727 14.8302 12.1158 14.7772 12.2638 14.777H13.5402C16.0477 14.777 18.011 13.7585 18.5846 10.8123C18.6016 10.7252 18.6163 10.6403 18.6291 10.5575C18.7995 9.46851 18.6279 8.72731 18.0389 8.0562" fill="#003087"/>
<path d="M12.3967 10.5722C12.417 10.4441 12.4824 10.3275 12.581 10.2433C12.6795 10.159 12.8049 10.1127 12.9346 10.1125H16.3455C16.7494 10.1125 17.1262 10.1388 17.4705 10.1938C17.6587 10.2241 17.8449 10.2658 18.0281 10.3185C18.2362 10.377 18.4375 10.4572 18.6288 10.5579C18.7999 9.46851 18.628 8.7277 18.039 8.0562C17.3903 7.3177 16.2189 7.00093 14.7198 7.00093H10.3686C10.2204 7.00104 10.077 7.05401 9.96429 7.15032C9.85158 7.24664 9.7769 7.38 9.75368 7.52643L7.94211 19.0155C7.93366 19.0688 7.93686 19.1233 7.9515 19.1752C7.96614 19.2272 7.99186 19.2753 8.02691 19.3164C8.06195 19.3574 8.10547 19.3904 8.15448 19.413C8.20348 19.4356 8.25681 19.4473 8.31077 19.4473H10.9972L11.6717 15.1681L12.3967 10.5722Z" fill="#003087"/>
<path d="M18.6285 10.5569C18.6153 10.6421 18.6004 10.7271 18.584 10.8117C18.0105 13.7576 16.0471 14.7764 13.5396 14.7764H12.2629C12.1148 14.7766 11.9717 14.8296 11.8594 14.9259C11.7471 15.0223 11.6729 15.1557 11.6502 15.3019L10.9965 19.4463L10.8107 20.622C10.8033 20.6687 10.8061 20.7164 10.8189 20.7619C10.8318 20.8074 10.8543 20.8496 10.885 20.8855C10.9157 20.9214 10.9538 20.9503 10.9968 20.97C11.0397 20.9898 11.0864 21 11.1336 21H13.3979C13.6659 21 13.8936 20.8048 13.9358 20.5403L13.9579 20.4249L14.3846 17.7203L14.4117 17.5709C14.432 17.4427 14.4974 17.326 14.5961 17.2417C14.6947 17.1575 14.8203 17.1112 14.95 17.1112H15.2889C17.4823 17.1112 19.1997 16.2205 19.7016 13.643C19.9107 12.5664 19.8023 11.6668 19.2485 11.0352C19.0727 10.8394 18.8626 10.6773 18.6285 10.5569Z" fill="#009CDE"/>
<path d="M18.0281 10.3188C17.9406 10.2928 17.8503 10.2696 17.7574 10.2491C17.6644 10.2285 17.5684 10.2103 17.47 10.1949C17.1254 10.1387 16.749 10.1124 16.3447 10.1124H12.9341C12.8043 10.1122 12.6787 10.1585 12.5801 10.2429C12.4814 10.3273 12.4162 10.4442 12.3962 10.5724L11.6713 15.1691L11.6504 15.3027C11.673 15.1565 11.7472 15.0231 11.8596 14.9267C11.9719 14.8304 12.115 14.7773 12.263 14.7772H13.5398C16.0473 14.7772 18.0106 13.7588 18.5842 10.8125C18.6012 10.7254 18.6155 10.641 18.6287 10.5577C18.4772 10.4785 18.3195 10.4119 18.157 10.3587C18.1148 10.3447 18.0718 10.3316 18.0281 10.3184" fill="#012169"/>
</svg>
