<svg width="48" height="28" viewBox="0 0 48 28" fill="none" xmlns="http://www.w3.org/2000/svg">
<rect width="47.32" height="28" rx="5" fill="white"/>
<g clip-path="url(#clip0)">
<path d="M13.3144 8.80469C13.7022 8.3125 13.9792 7.65625 13.8961 7C13.3144 7.02734 12.622 7.38281 12.2065 7.84766C11.8465 8.25781 11.5141 8.94141 11.5972 9.57031C12.2619 9.65234 12.899 9.29688 13.3144 8.80469ZM13.8961 9.73438C12.9544 9.67969 12.1511 10.2539 11.708 10.2539C11.2648 10.2539 10.5724 9.76172 9.82458 9.76172C8.85518 9.78906 7.96886 10.3086 7.47031 11.1836C6.47321 12.9062 7.19334 15.4492 8.19044 16.8438C8.6613 17.5273 9.24294 18.293 9.99076 18.2656C10.7109 18.2383 10.9879 17.8008 11.8465 17.8008C12.7051 17.8008 12.9544 18.2656 13.7299 18.2383C14.5054 18.2109 15.004 17.5547 15.4748 16.8438C16.0288 16.0508 16.2503 15.2852 16.2503 15.2578C16.2226 15.2305 14.727 14.6836 14.727 12.9883C14.6993 11.5664 15.8903 10.8828 15.9457 10.8555C15.3086 9.87109 14.2561 9.76172 13.8961 9.73438Z" fill="black"/>
<path d="M22.0404 7.79297C24.09 7.79297 25.5026 9.1875 25.5026 11.1836C25.5026 13.207 24.0623 14.6016 21.985 14.6016H19.7416V18.1289H18.1074V7.79297H22.0404ZM19.7416 13.2617H21.5973C23.0098 13.2617 23.8131 12.4961 23.8131 11.2109C23.8131 9.89844 23.0098 9.16016 21.5973 9.16016H19.7139V13.2617H19.7416ZM25.9181 16.0234C25.9181 14.7109 26.9429 13.8906 28.7709 13.7812L30.8759 13.6719V13.0977C30.8759 12.25 30.2942 11.7578 29.3525 11.7578C28.4385 11.7578 27.8846 12.1953 27.7461 12.8516H26.2504C26.3335 11.4844 27.5245 10.4727 29.4079 10.4727C31.2636 10.4727 32.4546 11.4297 32.4546 12.9609V18.1562H30.959V16.9258H30.9313C30.4881 17.7734 29.5187 18.293 28.5216 18.293C26.9706 18.293 25.9181 17.3633 25.9181 16.0234ZM30.8759 15.3398V14.7383L28.9925 14.8477C28.0507 14.9023 27.5245 15.3125 27.5245 15.9688C27.5245 16.625 28.0784 17.0625 28.9094 17.0625C30.0173 17.0625 30.8759 16.3242 30.8759 15.3398ZM33.8395 20.9453V19.6875C33.9503 19.7148 34.2272 19.7148 34.338 19.7148C35.0582 19.7148 35.4459 19.4141 35.6952 18.6484C35.6952 18.6211 35.8337 18.1836 35.8337 18.1836L33.064 10.6367H34.7535L36.6923 16.7891H36.72L38.6588 10.6367H40.3206L37.4678 18.5938C36.8031 20.4258 36.0553 21 34.4765 21C34.3657 20.9727 33.978 20.9727 33.8395 20.9453Z" fill="black"/>
</g>
<defs>
<clipPath id="clip0">
<rect width="33.32" height="14" fill="white" transform="translate(7 7)"/>
</clipPath>
</defs>
</svg>
