<svg width="50" height="28" viewBox="0 0 50 28" fill="none" xmlns="http://www.w3.org/2000/svg">
<rect x="0.320312" width="49.6176" height="28" rx="5" fill="white"/>
<g clip-path="url(#clip0)">
<path d="M24.1675 13.8405V17.9431H22.8516V7.8093H26.3398C27.1812 7.79158 27.9944 8.10761 28.5986 8.68652C29.2103 9.23145 29.555 10.0112 29.5415 10.8249C29.5594 11.6445 29.2148 12.4302 28.5986 12.9766C27.9884 13.5525 27.235 13.8405 26.3398 13.839L24.1675 13.8405ZM24.1675 9.05719V12.5956H26.3726C26.862 12.6104 27.3334 12.4198 27.6736 12.0713C28.3644 11.4068 28.3808 10.3125 27.7079 9.62871C27.696 9.6169 27.6855 9.60508 27.6736 9.59474C27.3379 9.23884 26.8635 9.0439 26.3726 9.05719H24.1675ZM32.5732 10.7836C33.546 10.7836 34.3128 11.0405 34.8753 11.5544C35.4378 12.0684 35.7183 12.7743 35.7183 13.6692V17.9431H34.4605V16.9802H34.4039C33.8593 17.7732 33.1342 18.169 32.2301 18.169C31.4587 18.169 30.8127 17.9431 30.2935 17.4897C29.7892 17.0688 29.5027 16.4456 29.5147 15.7914C29.5147 15.0736 29.7892 14.5036 30.3368 14.0798C30.8843 13.6559 31.6154 13.4433 32.5314 13.4433C33.3117 13.4433 33.9563 13.585 34.4605 13.8671V13.5688C34.4635 13.1228 34.2636 12.7004 33.9175 12.4169C33.5698 12.1068 33.1163 11.9369 32.6478 11.9428C31.9138 11.9428 31.3319 12.25 30.9037 12.8629L29.7459 12.1407C30.3815 11.2355 31.3244 10.7836 32.5732 10.7836ZM30.8709 15.8209C30.8694 16.1576 31.032 16.4736 31.3065 16.6701C31.5975 16.896 31.9585 17.0171 32.3285 17.0097C32.8835 17.0082 33.4162 16.7897 33.8086 16.4013C34.2442 15.9952 34.462 15.5196 34.462 14.9717C34.0518 14.6483 33.4803 14.4859 32.7463 14.4859C32.2122 14.4859 31.7661 14.6129 31.4095 14.8684C31.0499 15.1283 30.8709 15.4428 30.8709 15.8209ZM42.9394 11.0095L38.5485 21H37.1908L38.8201 17.5044L35.9316 11.0095H37.3609L39.4482 15.9907H39.4765L41.5071 11.0095H42.9394Z" fill="#5F6368"/>
<path d="M18.8517 12.9539C18.8517 12.5567 18.8189 12.1609 18.7502 11.7695H13.2031V14.0113H16.3795C16.2482 14.7349 15.8245 15.3744 15.2053 15.7805V17.2366H17.1016C18.2116 16.225 18.8517 14.7261 18.8517 12.9539Z" fill="#4285F4"/>
<path d="M13.202 18.6436C14.7894 18.6436 16.1262 18.1282 17.1005 17.2377L15.2042 15.7815C14.676 16.136 13.9972 16.3383 13.202 16.3383C11.6682 16.3383 10.3657 15.3149 9.90025 13.9355H7.94727V15.436C8.94539 17.4031 10.9789 18.6436 13.202 18.6436Z" fill="#34A853"/>
<path d="M9.89992 13.9359C9.65374 13.2138 9.65374 12.4296 9.89992 11.7075V10.207H7.94694C7.11144 11.8522 7.11144 13.7912 7.94694 15.4364L9.89992 13.9359Z" fill="#FBBC04"/>
<path d="M13.202 9.30563C14.0404 9.29234 14.8506 9.60542 15.4578 10.1784L17.1378 8.51702C16.0725 7.52757 14.6626 6.98411 13.202 7.00035C10.9789 7.00035 8.94539 8.24234 7.94727 10.2079L9.90025 11.7084C10.3657 10.329 11.6682 9.30563 13.202 9.30563Z" fill="#EA4335"/>
</g>
<defs>
<clipPath id="clip0">
<rect width="35.6176" height="14" fill="white" transform="translate(7.32031 7)"/>
</clipPath>
</defs>
</svg>
